<svg xmlns="http://www.w3.org/2000/svg" xmlns:xlink="http://www.w3.org/1999/xlink" viewBox="0 0 1000 1000"><defs><style>.a{fill:url(#a);}.b{fill:#39b54a;}.c{fill:url(#b);}.d{fill:none;}.e{fill:#006837;}.f{fill:#009245;}</style><linearGradient id="a" x1="500" x2="500" y2="1000" gradientUnits="userSpaceOnUse"><stop offset="0" stop-color="#cce0f4"/><stop offset="0.0641" stop-color="#c3dcf2"/><stop offset="0.1706" stop-color="#a9d2ee"/><stop offset="0.3066" stop-color="#80c2e7"/><stop offset="0.4649" stop-color="#47acde"/><stop offset="0.5674" stop-color="#1e9cd7"/><stop offset="0.8652" stop-color="#0075be"/><stop offset="0.9944" stop-color="#005b97"/></linearGradient><linearGradient id="b" x1="598" y1="1000" x2="598" y2="695" xlink:href="#a"/></defs><title>fir background cropped</title><rect class="a" width="1000" height="1000"/><polygon class="b" points="1000 1000 0 1000 0 381.333 619 687 823 479 1000 581.333 1000 1000"/><polygon class="c" points="614 695 665 766 473 1000 627 1000 723 763 614 695"/><polygon class="d" points="834.827 573.351 835.155 572 834.499 572 834.827 573.351"/><polygon class="d" points="953.939 619.38 955.001 615 952.876 615 953.939 619.38"/><path class="d" d="M983.2728,621H954.3316L957,632H941.3857L954,684H894.5455L907.16,632h-9.6144l9.946-41H839.1082l5.0282,20.728L859,673H800.1187L804,689H744.5455l14.7976-61H715.5455l14.8636-61.272,14.8637-61.2721,14.8636,61.2721,7.0352,29.0009,7.1012-29.273,14.8636,61.2721,10.6957,44.0907,14.577-60.0907L824.0465,572h-41.501l14.8636-61.272,14.8637-61.2721,14.8636,61.2721,11.4409,47.1627,6.8318-28.1627,14.8637-61.2721,14.8636,61.2721,2.6364,10.8678,2.6363-10.8678,14.8637-61.2721,14.8636,61.2721,6.1093,25.1844,11.0271-45.4565,7.438,30.6617,11.562-47.6617,14.8636,61.2721,4.3641,17.99,2.9086-11.99,14.8637-61.2721,14.8636,61.2721L1000,567.41V0H0V378.681l9.2728-38.2251L24.1364,401.728l2.139,8.8175,8.9974-37.09L50.1364,434.728,65,496H5.5455l8.0053-33H0v944H1000V621Zm-921,5H32.5455l14.8636-61.272,14.8637-61.2721L77.1364,564.728,92,626Zm104-118h-7.61L164,530H104.5455l14.8636-61.272.4192-1.728H67.5455l14.8636-61.272,14.8637-61.2721,14.8636,61.2721,11.2778,46.49,10.8586-44.7622,13.3316,54.9565,3.8047-15.6844,14.8637-61.2721,14.8636,61.2721,3.5352,14.573,3.6012-14.8451,14.8636,61.2721L218,569H158.5455l14.7976-61Zm62.8636,146.728L244,716H184.5455l14.8636-61.272,14.8637-61.2721.8708,3.59,10.2655-42.3176,14.8637-61.2721,14.8636,61.2721L270,616H219.7416ZM326.2728,589H296.5455l14.8636-61.272,14.8637-61.2721,14.8636,61.2721L356,589Zm86,58H382.5455l14.8636-61.272,14.8637-61.2721,14.8636,61.2721L442,647Zm159,53H541.5455l14.8636-61.272,14.8637-61.2721,14.8636,61.2721L601,700Zm119-6H660.5455l14.8636-61.272,14.8637-61.2721,14.8636,61.2721L720,694Z"/><polygon class="e" points="50.136 434.728 35.273 373.456 26.275 410.546 24.136 401.728 9.273 340.456 0 378.681 0 463 9.273 463 13.551 463 5.546 496 35.273 496 65 496 50.136 434.728"/><polygon class="e" points="203.136 507.728 188.273 446.456 184.672 461.301 181.136 446.728 166.273 385.456 151.409 446.728 147.604 462.412 134.273 407.456 123.414 452.218 112.136 405.728 97.273 344.456 82.409 405.728 67.546 467 97.273 467 119.828 467 119.409 468.728 104.546 530 134.273 530 164 530 158.663 508 166.273 508 173.343 508 158.546 569 188.273 569 218 569 203.136 507.728"/><polygon class="e" points="952.876 615 946.273 615 937.262 615 939.136 622.728 941.386 632 957 632 954.332 621 953.939 619.38 952.876 615"/><polygon class="e" points="924.273 561.456 926.904 572.301 931.409 553.728 934.711 540.118 927.273 509.456 916.246 554.912 921.053 574.729 924.273 561.456"/><path class="e" d="M998.1364,559.728l-14.8636-61.2721L968.4091,559.728l-2.9086,11.99-4.3641-17.99-14.8636-61.2721-11.562,47.6617-3.3017,13.61-4.5055,18.573-2.6308-10.8451-3.22,13.2731-4.8072-19.8166-6.1093-25.1844-14.8636-61.2721L880.4091,529.728l-2.6363,10.8678-2.6364-10.8678-14.8636-61.2721L845.4091,529.728l-6.8318,28.1627L827.1364,510.728l-14.8636-61.2721L797.4091,510.728,782.5455,572h41.501l-9.6374,39.728-14.577,60.0907L800.1187,673H859l-14.8636-61.272L839.1082,591h68.3833l-9.946,41H907.16l-12.6144,52H954l-12.6143-52-2.2493-9.272L937.2617,615H955.001l-1.0625,4.38.3931,1.62H1000V567.41ZM834.499,572h.6556l-.3278,1.3513Z"/><polygon class="e" points="800.119 673 799.832 671.819 789.136 627.728 774.273 566.456 767.172 595.729 760.136 566.728 745.273 505.456 730.409 566.728 715.546 628 745.273 628 759.343 628 744.546 689 774.273 689 804 689 800.119 673"/><polygon class="e" points="690.273 571.456 675.409 632.728 660.546 694 690.273 694 720 694 705.136 632.728 690.273 571.456"/><polygon class="e" points="571.273 577.456 556.409 638.728 541.546 700 571.273 700 601 700 586.136 638.728 571.273 577.456"/><polygon class="e" points="412.273 524.456 397.409 585.728 382.546 647 412.273 647 442 647 427.136 585.728 412.273 524.456"/><polygon class="e" points="326.273 466.456 311.409 527.728 296.546 589 326.273 589 356 589 341.136 527.728 326.273 466.456"/><polygon class="e" points="220.167 616 240.273 616 270 616 255.136 554.728 240.273 493.456 225.409 554.728 215.357 596.168 213.144 587.046 212.273 583.456 197.409 644.728 182.546 706 212.273 706 242 706 227.136 644.728 220.167 616"/><polygon class="e" points="62.273 503.456 47.409 564.728 32.546 626 62.273 626 92 626 77.136 564.728 62.273 503.456"/><polygon class="d" points="65.443 643 77.378 692.198 89.312 643 65.443 643"/><polygon class="d" points="847.49 742 863.776 809.138 880.063 742 876.437 742 847.49 742"/><polygon class="d" points="911.511 844.614 912.259 847.695 913.155 844 911.362 844 911.511 844.614"/><polygon class="d" points="946.705 978.956 959.646 925.609 949.699 925.609 931.16 925.609 939.682 960.74 883.341 960.74 827 960.74 855.17 844.614 862.035 816.314 809.176 816.314 752.835 816.314 781.006 700.188 809.176 584.061 833.793 685.539 848.267 625.874 876.437 509.747 904.608 625.874 915.929 672.541 930.676 611.747 942.764 661.578 966.011 565.747 978.775 618.362 990.489 570.074 1000 530.865 1000 0 0 0 0 565.896 23.369 469.561 51.54 585.688 56.358 605.549 75.443 526.874 103.614 410.747 131.784 526.874 153.232 615.286 176.903 517.703 205.074 633.83 220.837 698.809 234.153 643.913 262.324 760.04 290.494 876.166 234.153 876.166 177.813 876.166 205.983 760.04 208.429 749.956 176.903 749.956 130.906 749.956 153.477 843 97.136 843 40.796 843 68.966 726.874 75.045 701.814 23.369 701.814 0 701.814 0 1407 1000 1407 1000 978.956 946.705 978.956"/><polygon class="d" points="125.734 728.636 146.508 643 104.96 643 125.307 726.874 125.734 728.636"/><polygon class="d" points="886.619 742 892.849 767.682 899.079 742 886.619 742"/><path class="f" d="M262.3239,760.04l-28.17-116.1264-13.3167,54.8952L205.0739,633.83,176.9034,517.7032l-23.6719,97.5825-21.4474-88.4121-28.17-116.1264-28.17,116.1264L56.3578,605.549,51.54,585.6876l-28.17-116.1264L0,565.8964V701.814H75.045l-6.079,25.06L40.7955,843H153.4772l-22.571-93.044h77.523L205.983,760.04l-28.17,116.1264H290.4943ZM77.3776,692.1985,65.4429,643h23.87Zm48.3568,36.4379-.4276-1.7628L104.96,643h41.548Z"/><path class="f" d="M990.4886,570.0739l-11.7139,48.2878-12.7634-52.6145-23.247,95.8309-12.0882-49.8309-14.7475,60.7934-11.3207-46.667-28.17-116.1264-28.17,116.1264-14.4739,59.6657-24.617-101.4782-28.17,116.1264-28.17,116.1265h109.2l-6.8651,28.3L827,960.74H939.6817L931.16,925.6094h28.4861L946.7045,978.956H1000V530.8652ZM899.0789,742l-6.23,25.6817L886.6188,742ZM847.49,742h32.5733l-16.2867,67.1381Zm64.0217,102.6136L911.3624,844h1.7927l-.8963,3.6949Z"/><rect class="d" width="1000" height="1087"/><polygon class="d" points="724.355 1001.099 730.673 975.053 718.036 975.053 724.355 1001.099"/><polygon class="d" points="0 914 0 919.676 1.377 914 0 914"/><polygon class="d" points="964.402 1134 943.842 1134 951.605 1166 874.402 1166 832.451 1166 835.605 1179 758.402 1179 681.199 1179 702.897 1089.552 689.472 1089.552 633.131 1089.552 661.301 973.426 689.472 857.3 706.811 928.777 723.756 858.926 751.926 742.8 776.942 845.923 812.402 699.747 851.004 858.874 861.353 901.538 874.402 847.747 903.527 967.81 911.517 934.874 939.687 818.747 951.681 868.187 964.402 815.747 1000 962.492 1000 0 0 0 0 755.831 17.972 681.747 37.845 763.67 48.985 717.747 86.88 873.963 111.676 771.747 129.818 846.534 135.8 821.874 174.402 662.747 213.004 821.874 220.867 854.29 234.341 798.747 262.511 914.874 290.682 1031 258.252 1031 287.605 1152 210.402 1152 133.199 1152 171.8 992.874 174.681 981 174.402 981 162.438 981 168.017 1004 118.425 1004 126.188 1036 48.985 1036 0 1036 0 1407 1000 1407 1000 1134 964.402 1134"/><polygon class="b" points="786.541 885.493 805.886 805.747 834.057 921.874 845.238 967.968 861.353 901.538 851.004 858.874 812.402 699.747 776.942 845.923 780.097 858.926 786.541 885.493"/><polygon class="b" points="140.468 890.435 149.58 852.874 177.75 736.747 205.92 852.874 213.566 884.389 220.867 854.29 213.004 821.874 174.402 662.747 135.8 821.874 129.818 846.534 139.847 887.874 140.468 890.435"/><polygon class="b" points="193.04 969 177.75 969 159.527 969 162.438 981 174.402 981 174.681 981 190.129 981 193.04 969"/><polygon class="f" points="10.383 876.874 37.845 763.67 17.972 681.747 0 755.831 0 914 1.377 914 10.383 876.874"/><polygon class="f" points="177.75 969 193.04 969 206.171 914.874 213.566 884.389 205.92 852.874 177.75 736.747 149.58 852.874 140.468 890.435 159.527 969 177.75 969"/><polygon class="f" points="118.425 1004 168.017 1004 162.438 981 159.527 969 140.468 890.435 139.847 887.874 129.818 846.534 111.676 771.747 86.88 873.963 87.586 876.874 118.425 1004"/><polygon class="f" points="718.036 975.053 730.673 975.053 758.402 860.747 775.473 931.119 777.716 921.874 786.541 885.493 780.097 858.926 776.942 845.923 751.926 742.8 723.756 858.926 706.811 928.777 717.642 973.426 718.036 975.053"/><polygon class="f" points="805.886 805.747 786.541 885.493 777.716 921.874 775.473 931.119 797.004 1019.874 801.401 1038 805.886 1038 828.25 1038 835.8 1006.874 845.238 967.968 834.057 921.874 805.886 805.747"/><polygon class="f" points="724.355 1001.099 718.036 975.053 717.642 973.426 706.811 928.777 689.472 857.3 661.301 973.426 633.131 1089.552 689.472 1089.552 702.897 1089.552 719.8 1019.874 724.355 1001.099"/><polygon class="f" points="915.521 1017.25 925.8 974.874 951.681 868.187 939.687 818.747 911.517 934.874 903.527 967.81 913.004 1006.874 915.521 1017.25"/><polygon class="b" points="126.188 1036 118.425 1004 87.586 876.874 86.88 873.963 48.985 717.747 37.845 763.67 10.383 876.874 1.377 914 0 919.676 0 1036 48.985 1036 126.188 1036"/><polygon class="b" points="915.521 1017.25 913.004 1006.874 903.527 967.81 874.402 847.747 861.353 901.538 845.238 967.968 835.8 1006.874 828.25 1038 814.825 1093.339 832.451 1166 874.402 1166 951.605 1166 943.842 1134 887.199 1134 915.521 1017.25"/><polygon class="b" points="801.401 1038 797.004 1019.874 775.473 931.119 758.402 860.747 730.673 975.053 724.355 1001.099 719.8 1019.874 702.897 1089.552 681.199 1179 758.402 1179 835.605 1179 832.451 1166 814.825 1093.339 801.401 1038"/><polygon class="b" points="951.681 868.187 925.8 974.874 915.521 1017.25 887.199 1134 943.842 1134 964.402 1134 1000 1134 1000 962.492 964.402 815.747 951.681 868.187"/><polygon class="f" points="213.566 884.389 206.171 914.874 193.04 969 190.129 981 178 1031 234.341 1031 258.252 1031 290.682 1031 262.511 914.874 234.341 798.747 220.867 854.29 213.566 884.389"/><polygon class="b" points="259.188 1176 251.425 1144 220.586 1016.874 219.88 1013.963 181.985 857.747 170.845 903.67 105 1176 181.985 1176 259.188 1176"/><rect class="d" width="1000" height="1179"/></svg>