<?xml version="1.0" encoding="utf-8"?>
<!-- Generator: Adobe Illustrator 22.0.1, SVG Export Plug-In . SVG Version: 6.00 Build 0)  -->
<svg version="1.1" xmlns="http://www.w3.org/2000/svg" xmlns:xlink="http://www.w3.org/1999/xlink" x="0px" y="0px"
	 viewBox="0 0 453.5 453.5" style="enable-background:new 0 0 453.5 453.5;" xml:space="preserve">
<style type="text/css">
	.st0{fill:#FFFFFF;}
	.st1{fill:#2c3e50;}
</style>
<g id="fond">
	<ellipse class="st0" cx="226.8" cy="226.8" rx="180" ry="180"/>
</g>
<g id="logo">
	<g>
		<g>
			<polygon class="st1" points="105.7,160.1 94.1,153.3 99.7,143.6 96.9,142.1 91.3,151.8 82.8,146.8 88.9,136.3 86.1,134.7 
				78.1,148.5 103.7,163.4 			"/>
			<path class="st1" d="M102.7,136.4c6.8,5.9,15,5.7,20.1-0.2c5-5.7,4.9-13.9-2.8-20.6c-6.6-5.8-14.8-5.9-20.1,0.2
				C94.8,121.8,95.6,130.3,102.7,136.4z M102.2,118c4.2-4.8,10.9-3.1,15.3,0.8c5.1,4.4,7.1,10.7,3.1,15.3c-4,4.6-10.5,3.4-15.3-0.7
				C100.4,129,98.1,122.8,102.2,118z"/>
			<path class="st1" d="M145.2,115.5c6.1-4.5,7.9-12.5,1.8-20.7c-5.2-7.1-13.1-9-19.6-4.2c-6.4,4.7-7.4,13.1-1.9,20.7
				C130.9,118.5,138.9,120.2,145.2,115.5z M129.1,93.2c5.1-3.8,11.3-0.6,14.8,4.1c4,5.4,4.5,12-0.4,15.6c-4.9,3.6-11,1-14.7-4.1
				C125,103.6,124,97,129.1,93.2z"/>
			<polygon class="st1" points="153.5,79.1 165,102.8 168.5,101.1 157,77.4 165.1,73.4 163.7,70.5 144,80.1 145.4,83 			"/>
			<path class="st1" d="M185.8,94.7c4.6-1.4,7.6-3.1,9.1-5.5c1-1.8,1.5-4,0.8-6.4c-1.2-4.2-5-5.5-7.9-5.4l0-0.1c2.7-2,3.8-4.9,3-7.7
				c-0.7-2.2-2-3.7-3.8-4.3c-2.2-0.9-4.7-0.9-8.4,0.2c-2.6,0.7-5,1.7-6.5,2.5l8.1,28C181.3,95.8,183.3,95.4,185.8,94.7z M176.3,69.4
				c0.6-0.3,1.5-0.7,3.2-1.2c3.7-1.1,6.6-0.5,7.6,2.8c0.8,2.7-0.9,5.4-4.8,6.6l-3.3,1L176.3,69.4z M182.8,80.5
				c4-1.2,7.8-0.5,8.9,3.4c1.2,4.1-1.9,6.6-5.7,7.7c-1.3,0.4-2.4,0.6-3.1,0.7l-3.2-10.9L182.8,80.5z"/>
			<path class="st1" d="M207.3,80.1l10.5-1l4,9l4.1-0.4L213,59.1l-4.6,0.4L201.2,90l3.9-0.4L207.3,80.1z M209.9,68.2
				c0.4-1.8,0.7-3.7,1-5.5l0.1,0c0.6,1.7,1.2,3.4,2,5.2l3.7,8.2l-8.9,0.8L209.9,68.2z"/>
			<polygon class="st1" points="247,89.5 247.3,86.3 234.7,85.2 236.8,58.9 233,58.6 230.6,88.1 			"/>
			<polygon class="st1" points="268.3,91 255.9,88.1 262,62.3 258.3,61.5 251.5,90.3 267.5,94.1 			"/>
			
				<rect x="275.7" y="79.7" transform="matrix(0.3366 -0.9417 0.9417 0.3366 103.7363 317.4631)" class="st1" width="2.9" height="10.9"/>
			<path class="st1" d="M294.6,106.6c3.2,1.7,6,2.4,7.6,2.5l0.7-3.1c-1.7-0.1-4-0.8-6.1-1.9c-6.4-3.4-7.8-9.5-4.4-15.9
				c3.7-6.9,9.9-8.6,16-5.3c2.2,1.2,3.7,2.6,4.7,3.9l2.3-2.3c-0.6-0.9-2.3-2.7-5.6-4.5c-8.1-4.3-16.6-1.8-21,6.4
				C284.2,95,287.3,102.7,294.6,106.6z"/>
			<polygon class="st1" points="318.8,123.2 320.8,120.6 310.8,112.8 327.1,92 324.1,89.6 305.8,113 			"/>
			<path class="st1" d="M327.9,133.3c4.3,4.7,10.3,5.8,17.1-0.4l12.8-11.6l-2.6-2.9l-13,11.8c-4.8,4.4-8.9,4.3-11.9,1
				c-2.7-2.9-2.6-7,2.3-11.5l13-11.8l-2.6-2.9l-12.9,11.8C323.3,123.1,323.8,128.8,327.9,133.3z"/>
			<path class="st1" d="M342.7,152.2c2.5,4.1,5,6.5,7.7,7.3c2,0.5,4.2,0.4,6.4-1c3.8-2.3,4-6.3,3.2-9.1l0.1,0
				c2.6,2.1,5.7,2.4,8.2,0.9c2-1.2,3-2.9,3.2-4.8c0.3-2.4-0.4-4.8-2.4-8.1c-1.4-2.3-3-4.4-4.2-5.7L339.9,147
				C340.4,148.1,341.3,150,342.7,152.2z M364.6,136.4c0.4,0.5,1.1,1.3,2,2.8c2,3.3,2.2,6.3-0.7,8.1c-2.4,1.5-5.5,0.6-7.6-2.9l-1.8-3
				L364.6,136.4z M353.9,142.9l1.6,2.7c2.2,3.6,2.6,7.4-0.9,9.5c-3.7,2.2-6.8-0.1-8.9-3.5c-0.7-1.2-1.2-2.1-1.5-2.8L353.9,142.9z"/>
		</g>
		<polygon class="st1" points="118.8,315.7 97,335.8 108.2,348 110.6,345.8 102,336.5 121.4,318.5 		"/>
		<polygon class="st1" points="127.6,346.4 136.7,353.5 138.6,351 129.6,343.9 135.3,336.5 144.9,344 146.9,341.5 134.3,331.6 
			116,354.9 129.1,365.2 131.1,362.7 121,354.8 		"/>
		<path class="st1" d="M160.7,349.1c-5.1-2.8-10.1-1.6-12.3,2.4c-2,3.7-0.6,7.3,2.8,11.1c2.8,3.3,3.4,5.4,2.1,7.9
			c-1.4,2.6-4.4,3.3-7.9,1.5c-2.3-1.3-4.1-3.2-5.1-5l-2.4,2.3c0.9,1.7,3.2,3.9,5.7,5.3c6.1,3.4,11,1.5,13.2-2.5
			c2.1-3.8,1-7.2-2.4-11.3c-2.8-3.4-3.8-5.4-2.4-7.9c1-1.8,3.5-3.2,7-1.2c2.4,1.3,3.7,3,4.3,3.9l2.4-2.2
			C164.9,352.2,163.3,350.5,160.7,349.1z"/>
		<path class="st1" d="M191.7,361.5c-2.6-0.6-5.2-1-6.9-1.1l-7,28.3c1.2,0.5,3.1,1.1,5.7,1.8c4.7,1.2,8.2,1.1,10.6-0.2
			c1.8-1.1,3.2-2.7,3.9-5.2c1.1-4.3-1.6-7.3-4.2-8.7l0-0.1c3.3-0.4,5.7-2.3,6.4-5.1c0.6-2.3,0.1-4.2-1.1-5.7
			C197.6,363.6,195.4,362.4,191.7,361.5z M194,384.1c-1,4.2-4.9,4.7-8.8,3.8c-1.3-0.3-2.4-0.6-3.1-0.9l2.7-11l3.1,0.8
			C192,377.7,195,380.1,194,384.1z M196.3,370.6c-0.7,2.8-3.5,4.3-7.4,3.3l-3.4-0.8l2.3-9.3c0.6,0,1.6,0.1,3.4,0.6
			C194.9,365.3,197.2,367.3,196.3,370.6z"/>
		<path class="st1" d="M216.5,365.5c-2.6-0.2-5.4-0.1-7.4,0.2l-1.8,29.2l3.8,0.2l0.8-12.8l3.6,0.2c3.5,0.4,4.9,2,5.6,6.1
			c0.6,3.7,1.1,6.3,1.5,7.2l4,0.2c-0.5-1.2-1.1-4.1-1.8-8.3c-0.5-3.1-1.7-5.3-4-6.2l0-0.1c3.2-0.9,5.8-3.3,6.1-7.2
			c0.1-2.3-0.6-4.4-2-5.8C223.1,366.7,220.5,365.8,216.5,365.5z M223,374.4c-0.2,3.4-2.9,5.5-7,5.2l-3.9-0.2l0.7-10.8
			c0.6-0.1,2-0.2,3.8-0.1C220.6,368.8,223.2,370.6,223,374.4z"/>
		<polygon class="st1" points="240.6,392 239.4,381.4 250.8,380.1 250.5,376.9 239,378.2 238,368.9 250.1,367.6 249.8,364.4 
			233.8,366.1 237.1,395.6 253.7,393.8 253.3,390.6 		"/>
		<path class="st1" d="M274.1,358.1l3.5,11.9c1.3,4.4,2.4,7.9,3.9,11.6l-0.1,0.1c-2.2-2.5-4.8-5-7.9-7.7l-13.4-11.7l-4,1.2l8.5,28.4
			l3.5-1l-3.6-12.1c-1.4-4.7-2.5-8.1-3.8-11.6l0.1-0.1c2.4,2.6,5.2,5.3,8.1,7.9l13.3,11.7l3.7-1.1l-8.5-28.4L274.1,358.1z"/>
		<polygon class="st1" points="300,375.6 295.1,366.1 305.3,360.8 303.8,358 293.6,363.3 289.3,355 300.1,349.4 298.6,346.5 
			284.4,353.9 298.1,380.2 312.9,372.5 311.4,369.7 		"/>
		<polygon class="st1" points="321.7,333.8 319.8,331.2 302.3,344.5 304.2,347.1 311.4,341.6 327.3,362.7 330.4,360.3 314.5,339.3 
					"/>
		<path class="st1" d="M338.3,330.5c-4,1.9-6.2,2.2-8.2,0.3c-1.5-1.4-2.2-4.2,0.6-7.1c1.9-1.9,3.9-2.8,4.9-3.1l-1.5-2.9
			c-1.5,0.4-3.5,1.6-5.6,3.7c-4,4.2-4.1,9.3-0.8,12.5c3,2.9,6.9,2.4,11.5,0.1c3.9-1.8,6.1-1.9,8.1,0c2.2,2.1,2.1,5.1-0.6,8
			c-1.8,1.9-4.2,3.1-6.1,3.6l1.7,2.9c1.9-0.4,4.6-2.1,6.6-4.2c4.8-5.1,4.3-10.3,1-13.4C346.7,328,343.2,328.2,338.3,330.5z"/>
		<path class="st1" d="M356.9,96.6c-71.8-71.8-188.5-71.8-260.3,0c-34.8,34.8-53.9,81-53.9,130.1c0,49.2,19.1,95.4,53.9,130.1
			c35.9,35.9,83,53.8,130.1,53.8s94.3-17.9,130.1-53.8C428.7,285.2,428.7,168.4,356.9,96.6z M351.2,351.3
			c-68.6,68.6-180.3,68.6-249,0C69,318,50.7,273.8,50.7,226.8c0-47,18.3-91.2,51.6-124.5c34.3-34.3,79.4-51.5,124.5-51.5
			c45.1,0,90.2,17.2,124.5,51.5C419.9,170.9,419.9,282.6,351.2,351.3z"/>
		<path class="st1" d="M319.9,133.7c-51.3-51.3-134.8-51.3-186.2,0c-24.9,24.9-38.6,57.9-38.6,93.1c0,35.2,13.7,68.2,38.6,93.1
			c25.7,25.7,59.4,38.5,93.1,38.5c33.7,0,67.4-12.8,93.1-38.5C371.2,268.5,371.2,185,319.9,133.7z M137.2,137.2
			c24.7-24.7,57.1-37,89.6-37s64.9,12.3,89.5,37l-25.2,25.2c-22.2-24.6-41.8-27.8-56.3-27.8c-20.5,0-37.6,8.1-50.8,24
			c-1.6,1.9-3,3.8-4.4,5.8V146h-50.4C131.7,143,134.4,140,137.2,137.2z M148.1,183.5v-15.7h29.2c-4.7,7.6-8.3,16-10.7,25.3v-9.7
			H148.1z M137.2,316.3c-23.9-23.9-37.1-55.7-37.1-89.5c0-28,9.1-54.7,25.8-76.6v97.3h22.2v-44.7h16.4c-1.3,7.3-1.9,15.1-1.9,23.3
			c0,20.5,3.9,38.3,11.7,53.1L137.2,316.3z M234.8,314.7c-19.6,0-35.9-7.7-48.5-22.9c-13.7-16.5-20.7-38.6-20.7-65.7
			c0-27.1,7-49.2,20.7-65.7c12.6-15.2,28.9-22.9,48.5-22.9c13.9,0,32.7,3.1,54.2,26.9l-14.1,14.2c-16.8-16.1-29.9-18.5-39.5-18.7
			c-10.6-0.2-26,5-34.7,15.5c-7.6,9.2-14.7,21.6-14.7,50.7c0,29,7.1,41.5,14.7,50.7c8.7,10.5,24,15.7,34.7,15.5l0.6,0
			c7.8-0.2,20.8-0.4,39.1-18.7l14.6,13.3C268.9,311.3,251,314.7,234.8,314.7z M272.7,180.9l-78.8,78.8c-3.1-8-4.9-18.4-4.9-33.5
			c0-26.5,5.6-38.7,14-48.7c8-9.6,22.6-14.6,32.3-14.4C241.1,163.2,254.6,163.5,272.7,180.9z M334,272.9c-2.6,2.4-5.7,3.9-9.4,4.5
			c-2.3,0.3-8,0.5-17,0.6h-23.2l-0.5-0.5v-93.4h27.9c5.5,0,9.6,0.3,12.3,0.9c2.7,0.6,5.1,1.9,7.3,3.9c2.1,2,3.9,4.6,5.3,7.8
			c1.4,3.3,2.1,6.9,2.1,11c0,4.4-0.9,8.4-2.6,12.1s-4.1,6.4-7.1,8.2c4.2,1.7,7.5,4.5,9.8,8.5c2.3,4,3.4,8.7,3.4,14.1
			c0,4.3-0.7,8.4-2.2,12.5C338.6,267.3,336.5,270.5,334,272.9z"/>
		<path class="st1" d="M301.2,199.8v21.7h4.7c5.5,0,8.9-0.1,10.2-0.3c2.4-0.4,4.3-1.5,5.7-3.4c1.4-1.9,2.1-4.3,2.1-7.3
			c0-2.9-0.6-5.3-1.8-7.1c-1.2-1.8-3-2.9-5.3-3.3c-1.4-0.2-5.4-0.3-12-0.3H301.2z"/>
		<path class="st1" d="M319.4,238.5c-1.9-0.9-6.1-1.3-12.5-1.3h-5.8v25.1h7.4c5.1,0,8.3-0.2,9.7-0.6c2.1-0.5,3.8-1.8,5.1-3.7
			c1.3-2,2-4.6,2-8c0-2.8-0.5-5.2-1.5-7.2C322.8,240.8,321.3,239.4,319.4,238.5z"/>
	</g>
</g>
</svg>
