<?xml version="1.0" encoding="utf-8"?>
<!-- Generator: Adobe Illustrator 22.0.1, SVG Export Plug-In . SVG Version: 6.00 Build 0)  -->
<svg version="1.1" xmlns="http://www.w3.org/2000/svg" xmlns:xlink="http://www.w3.org/1999/xlink" x="0px" y="0px"
	 viewBox="0 0 453.5 453.5" style="enable-background:new 0 0 453.5 453.5;" xml:space="preserve">
<style type="text/css">
	.st0{fill:#FFFFFF;}
	.st1{fill:#2c3e50;}
</style>
<g id="fond">
	<ellipse class="st0" cx="226.8" cy="226.8" rx="180" ry="180"/>
</g>
<g id="logo">
	<g>
		<polygon class="st1" points="97.9,178.1 85.4,173 89.7,162.6 86.7,161.4 82.5,171.8 73.4,168.1 78,156.9 75,155.6 69,170.4 
			96.4,181.6 		"/>
		<path class="st1" d="M91.7,155.1c7.5,4.9,15.6,3.6,19.9-3c4.1-6.3,3-14.5-5.6-20.1c-7.4-4.8-15.4-3.8-19.9,3
			C81.9,141.7,83.8,149.9,91.7,155.1z M88.7,136.9c3.5-5.3,10.3-4.6,15.3-1.3c5.6,3.7,8.4,9.6,5.1,14.7c-3.3,5-9.9,4.8-15.2,1.4
			C88.4,148.1,85.2,142.2,88.7,136.9z"/>
		<path class="st1" d="M130.9,128.6c5.4-5.3,6.1-13.5-1-20.8c-6.1-6.3-14.2-7.1-20-1.5c-5.7,5.5-5.6,14,1,20.8
			C117.2,133.5,125.3,134,130.9,128.6z M112,108.7c4.6-4.4,11.1-2.2,15.2,2c4.7,4.8,6.1,11.2,1.8,15.5c-4.3,4.2-10.7,2.5-15.2-2
			C109.2,119.5,107.4,113.1,112,108.7z"/>
		<polygon class="st1" points="134.1,91.3 148.8,113.2 152,111.1 137.4,89.1 144.9,84.1 143.1,81.4 124.8,93.6 126.6,96.3 		"/>
		<path class="st1" d="M168.3,102.3c4.4-2,7.1-4.1,8.2-6.7c0.8-1.9,0.9-4.1-0.1-6.4c-1.8-4-5.8-4.8-8.6-4.3l0-0.1
			c2.4-2.3,3.1-5.4,1.9-8c-1-2.1-2.5-3.4-4.4-3.8c-2.3-0.6-4.8-0.2-8.3,1.4c-2.4,1.1-4.8,2.4-6.1,3.4l11.9,26.6
			C164,104.1,165.9,103.4,168.3,102.3z M155.4,78.6c0.5-0.4,1.4-0.9,3-1.6c3.5-1.6,6.5-1.4,7.9,1.8c1.2,2.6-0.1,5.5-3.8,7.2
			l-3.2,1.4L155.4,78.6z M163.4,88.7c3.8-1.7,7.7-1.6,9.3,2.1c1.8,3.9-1,6.8-4.6,8.4c-1.2,0.6-2.3,1-3,1.1L160.5,90L163.4,88.7z"/>
		<path class="st1" d="M187.6,84.9l10.2-2.4l5.2,8.3l4-0.9l-16.7-26.5l-4.5,1.1l-3,31.2l3.9-0.9L187.6,84.9z M188.5,72.8
			c0.1-1.9,0.2-3.8,0.2-5.6l0.1,0c0.8,1.6,1.7,3.2,2.7,4.9l4.8,7.6l-8.7,2.1L188.5,72.8z"/>
		<polygon class="st1" points="228.2,88.8 228,85.5 215.4,86.3 213.9,59.9 210,60.1 211.7,89.7 		"/>
		<polygon class="st1" points="249.5,87.4 236.9,86.2 239.3,59.8 235.5,59.5 232.7,89 249.2,90.6 		"/>
		
			<rect x="256" y="74.9" transform="matrix(0.2043 -0.9789 0.9789 0.2043 126.2591 315.9581)" class="st1" width="2.9" height="10.9"/>
		<path class="st1" d="M277.7,99.2c3.4,1.3,6.3,1.6,7.8,1.4l0.3-3.1c-1.7,0.2-4.1-0.2-6.3-1c-6.8-2.5-9.1-8.3-6.5-15.1
			c2.7-7.3,8.6-9.9,15.1-7.4c2.3,0.9,4.1,2.1,5.2,3.2l2-2.6c-0.8-0.8-2.7-2.4-6.1-3.7c-8.6-3.2-16.7,0.5-19.9,9.2
			C265.8,89.2,269.9,96.3,277.7,99.2z"/>
		<polygon class="st1" points="303.9,112.3 305.5,109.5 294.6,103.2 307.8,80.3 304.5,78.4 289.7,104 		"/>
		<path class="st1" d="M314.3,121.1c4.9,4.1,11,4.3,16.8-2.7l11.1-13.3l-3-2.5L328,116.1c-4.2,5-8.2,5.5-11.6,2.7
			c-3-2.5-3.5-6.6,0.7-11.7l11.2-13.5l-3-2.5l-11.2,13.4C308.4,111.6,309.7,117.2,314.3,121.1z"/>
		<path class="st1" d="M331.6,137.8c3.1,3.7,5.9,5.8,8.6,6.2c2.1,0.2,4.2-0.2,6.2-1.8c3.4-2.8,3.1-6.8,1.9-9.4l0.1-0.1
			c2.9,1.7,6,1.6,8.2-0.2c1.8-1.5,2.6-3.3,2.5-5.2c0-2.4-1.1-4.7-3.5-7.7c-1.7-2.1-3.6-4-4.9-5L328.1,133
			C328.7,134.1,329.9,135.8,331.6,137.8z M351.1,119.1c0.5,0.4,1.2,1.1,2.3,2.5c2.5,3,3.1,5.9,0.4,8.1c-2.2,1.8-5.4,1.3-7.9-1.8
			l-2.2-2.7L351.1,119.1z M341.4,127l2,2.5c2.6,3.2,3.6,7,0.4,9.5c-3.3,2.7-6.8,0.8-9.3-2.2c-0.9-1.1-1.5-1.9-1.9-2.6L341.4,127z"/>
		<polygon class="st1" points="111,306 87.4,323.9 97.4,337.1 100,335.1 92.3,325 113.3,309 		"/>
		<polygon class="st1" points="116.9,337.3 125.2,345.2 127.4,342.9 119,335 125.5,328.2 134.3,336.6 136.5,334.3 124.9,323.2 
			104.5,344.7 116.6,356.2 118.8,353.9 109.5,345 		"/>
		<path class="st1" d="M149.5,343.1c-4.8-3.2-9.9-2.5-12.5,1.3c-2.3,3.5-1.3,7.2,1.8,11.4c2.4,3.5,2.9,5.7,1.3,8
			c-1.7,2.5-4.7,2.9-8,0.7c-2.2-1.5-3.8-3.6-4.6-5.5l-2.6,2.1c0.7,1.8,2.8,4.2,5.2,5.8c5.8,3.9,10.8,2.6,13.4-1.2
			c2.4-3.6,1.7-7-1.4-11.5c-2.5-3.6-3.2-5.8-1.7-8c1.1-1.7,3.8-2.8,7.1-0.5c2.2,1.5,3.4,3.3,3.9,4.3l2.6-2
			C153.5,346.6,152,344.8,149.5,343.1z"/>
		<path class="st1" d="M179.2,358.3c-2.5-0.9-5.1-1.5-6.8-1.7l-9.6,27.5c1.1,0.6,3,1.4,5.5,2.3c4.6,1.6,8,1.9,10.6,0.8
			c1.9-0.9,3.5-2.4,4.3-4.8c1.4-4.2-0.9-7.4-3.3-9l0-0.1c3.3-0.1,5.9-1.8,6.9-4.5c0.8-2.2,0.5-4.2-0.6-5.8
			C184.9,361,182.8,359.6,179.2,358.3z M179.4,381.1c-1.4,4.1-5.3,4.2-9.1,2.9c-1.3-0.5-2.3-0.9-3-1.2l3.7-10.7l3,1
			C178,374.5,180.7,377.2,179.4,381.1z M183,367.9c-0.9,2.7-3.9,3.9-7.7,2.6l-3.3-1.1l3.1-9c0.6,0.1,1.6,0.3,3.3,0.9
			C182.1,362.5,184.1,364.6,183,367.9z"/>
		<path class="st1" d="M203.5,364.7c-2.6-0.4-5.4-0.6-7.4-0.5l-4.6,28.9l3.8,0.6l2-12.7l3.6,0.6c3.4,0.7,4.7,2.4,5,6.6
			c0.2,3.8,0.5,6.4,0.8,7.3l3.9,0.6c-0.4-1.2-0.7-4.2-1-8.4c-0.2-3.2-1.2-5.5-3.4-6.6l0-0.1c3.3-0.6,6.1-2.7,6.7-6.6
			c0.4-2.3-0.2-4.4-1.4-5.9C210,366.5,207.5,365.4,203.5,364.7z M209.2,374.2c-0.5,3.3-3.4,5.2-7.5,4.5l-3.9-0.6l1.7-10.7
			c0.6-0.1,2,0,3.8,0.2C207.3,368.3,209.8,370.4,209.2,374.2z"/>
		<polygon class="st1" points="225,393.3 224.8,382.6 236.4,382.5 236.3,379.3 224.8,379.5 224.6,370.1 236.8,369.9 236.8,366.7 
			220.8,367 221.2,396.6 237.9,396.3 237.9,393.1 		"/>
		<path class="st1" d="M261.6,362.7l2.4,12.2c0.9,4.5,1.7,8.1,2.8,11.9l-0.1,0.1c-2-2.7-4.3-5.4-7.1-8.4l-12.2-12.9l-4.1,0.8
			l5.8,29.1l3.5-0.7l-2.5-12.4c-1-4.8-1.7-8.3-2.7-11.9l0.1-0.1c2.1,2.9,4.7,5.8,7.4,8.6l12.2,12.9l3.8-0.8l-5.8-29.1L261.6,362.7z"
			/>
		<polygon class="st1" points="285.7,382.6 281.7,372.7 292.4,368.4 291.2,365.4 280.5,369.8 277,361.1 288.3,356.5 287.1,353.5 
			272.3,359.5 283.4,387 298.8,380.8 297.6,377.8 		"/>
		<polygon class="st1" points="311.3,343.1 309.6,340.3 290.9,351.8 292.6,354.6 300.3,349.9 314.2,372.3 317.5,370.3 303.6,347.8 
					"/>
		<path class="st1" d="M328.1,341.3c-4.1,1.5-6.4,1.6-8.2-0.4c-1.3-1.5-1.8-4.4,1.3-7c2-1.8,4.1-2.4,5.2-2.6l-1.3-3
			c-1.5,0.3-3.6,1.2-5.9,3.2c-4.3,3.8-5,8.9-1.9,12.4c2.7,3.2,6.6,3.1,11.4,1.2c4-1.5,6.3-1.3,8.1,0.8c2,2.3,1.6,5.3-1.4,7.9
			c-2,1.7-4.5,2.7-6.4,3l1.4,3.1c1.9-0.2,4.8-1.7,7-3.5c5.3-4.6,5.2-9.8,2.2-13.3C336.7,339.6,333.2,339.4,328.1,341.3z"/>
		<path class="st1" d="M356.9,96.6c-71.8-71.8-188.5-71.8-260.3,0c-34.8,34.8-53.9,81-53.9,130.1c0,49.2,19.1,95.4,53.9,130.1
			c35.9,35.9,83,53.8,130.1,53.8s94.3-17.9,130.1-53.8C428.7,285.2,428.7,168.4,356.9,96.6z M351.2,351.3
			c-68.6,68.6-180.3,68.6-249,0C69,318,50.7,273.8,50.7,226.8c0-47,18.3-91.2,51.6-124.5c34.3-34.3,79.4-51.5,124.5-51.5
			c45.1,0,90.2,17.2,124.5,51.5C419.9,170.9,419.9,282.6,351.2,351.3z"/>
		<path class="st1" d="M319.9,133.7c-51.3-51.3-134.8-51.3-186.2,0c-24.9,24.9-38.6,57.9-38.6,93.1c0,35.2,13.7,68.2,38.6,93.1
			c25.7,25.7,59.4,38.5,93.1,38.5c33.7,0,67.4-12.8,93.1-38.5C371.2,268.5,371.2,185,319.9,133.7z M137.2,137.2
			c24.7-24.7,57.1-37,89.6-37s64.9,12.3,89.5,37l-25.2,25.2c-22.2-24.6-41.8-27.8-56.3-27.8c-20.5,0-37.6,8.1-50.8,24
			c-1.6,1.9-3,3.8-4.4,5.8V146h-50.4C131.7,143,134.4,140,137.2,137.2z M148.1,183.5v-15.7h29.2c-4.7,7.6-8.3,16-10.7,25.3v-9.7
			H148.1z M137.2,316.3c-23.9-23.9-37.1-55.7-37.1-89.5c0-28,9.1-54.7,25.8-76.6v97.3h22.2v-44.7h16.4c-1.3,7.3-1.9,15.1-1.9,23.3
			c0,20.5,3.9,38.3,11.7,53.1L137.2,316.3z M234.8,314.7c-19.6,0-35.9-7.7-48.5-22.9c-13.7-16.5-20.7-38.6-20.7-65.7
			c0-27.1,7-49.2,20.7-65.7c12.6-15.2,28.9-22.9,48.5-22.9c13.9,0,32.7,3.1,54.2,26.9l-14.1,14.2c-16.8-16.1-29.9-18.5-39.5-18.7
			c-10.6-0.2-26,5-34.7,15.5c-7.6,9.2-14.7,21.6-14.7,50.7c0,29,7.1,41.5,14.7,50.7c8.7,10.5,24,15.7,34.7,15.5l0.6,0
			c7.8-0.2,20.8-0.4,39.1-18.7l14.6,13.3C268.9,311.3,251,314.7,234.8,314.7z M272.7,180.9l-78.8,78.8c-3.1-8-4.9-18.4-4.9-33.5
			c0-26.5,5.6-38.7,14-48.7c8-9.6,22.6-14.6,32.3-14.4C241.1,163.2,254.6,163.5,272.7,180.9z M334,272.9c-2.6,2.4-5.7,3.9-9.4,4.5
			c-2.3,0.3-8,0.5-17,0.6h-23.2l-0.5-0.5v-93.4h27.9c5.5,0,9.6,0.3,12.3,0.9c2.7,0.6,5.1,1.9,7.3,3.9c2.1,2,3.9,4.6,5.3,7.8
			c1.4,3.3,2.1,6.9,2.1,11c0,4.4-0.9,8.4-2.6,12.1s-4.1,6.4-7.1,8.2c4.2,1.7,7.5,4.5,9.8,8.5c2.3,4,3.4,8.7,3.4,14.1
			c0,4.3-0.7,8.4-2.2,12.5C338.6,267.3,336.5,270.5,334,272.9z"/>
		<path class="st1" d="M301.2,199.8v21.7h4.7c5.5,0,8.9-0.1,10.2-0.3c2.4-0.4,4.3-1.5,5.7-3.4c1.4-1.9,2.1-4.3,2.1-7.3
			c0-2.9-0.6-5.3-1.8-7.1c-1.2-1.8-3-2.9-5.3-3.3c-1.4-0.2-5.4-0.3-12-0.3H301.2z"/>
		<path class="st1" d="M319.4,238.5c-1.9-0.9-6.1-1.3-12.5-1.3h-5.8v25.1h7.4c5.1,0,8.3-0.2,9.7-0.6c2.1-0.5,3.8-1.8,5.1-3.7
			c1.3-2,2-4.6,2-8c0-2.8-0.5-5.2-1.5-7.2C322.8,240.8,321.3,239.4,319.4,238.5z"/>
	</g>
</g>
</svg>
