<svg width="372" height="372" xmlns="http://www.w3.org/2000/svg">
 <style type="text/css">.st0{fill:#FFFFFF;}
	.st1{fill:#2c3e50;}</style>

 <g>
  <title>background</title>
  <rect fill="none" id="canvas_background" height="374" width="374" y="-1" x="-1"/>
 </g>
 <g>
  <title>Layer 1</title>
  <g id="fond">
   <ellipse id="svg_1" ry="180" rx="180" cy="185.8" cx="185.8" class="st0"/>
  </g>
  <g id="logo">
   <g id="svg_2">
    <g id="svg_3">
     <polygon id="svg_4" points="64.69999694824219,119.10000610351562 53.099998474121094,112.30000305175781 58.69999694824219,102.60000610351562 55.900001525878906,101.10000610351562 50.30000305175781,110.80000305175781 41.80000305175781,105.80000305175781 47.900001525878906,95.30000305175781 45.099998474121094,93.69999694824219 37.099998474121094,107.5 62.69999694824219,122.39999389648438 " class="st1"/>
     <path id="svg_5" d="m61.7,95.4c6.8,5.9 15,5.7 20.1,-0.2c5,-5.7 4.9,-13.9 -2.8,-20.6c-6.6,-5.8 -14.8,-5.9 -20.1,0.2c-5.1,6 -4.3,14.5 2.8,20.6zm-0.5,-18.4c4.2,-4.8 10.9,-3.1 15.3,0.8c5.1,4.4 7.1,10.7 3.1,15.3c-4,4.6 -10.5,3.4 -15.3,-0.7c-4.9,-4.4 -7.2,-10.6 -3.1,-15.4z" class="st1"/>
     <path id="svg_6" d="m104.2,74.5c6.1,-4.5 7.9,-12.5 1.8,-20.7c-5.2,-7.1 -13.1,-9 -19.6,-4.2c-6.4,4.7 -7.4,13.1 -1.9,20.7c5.4,7.2 13.4,8.9 19.7,4.2zm-16.1,-22.3c5.1,-3.8 11.3,-0.6 14.8,4.1c4,5.4 4.5,12 -0.4,15.6c-4.9,3.6 -11,1 -14.7,-4.1c-3.8,-5.2 -4.8,-11.8 0.3,-15.6z" class="st1"/>
     <polygon id="svg_7" points="112.5,38.099998474121094 124,61.80000305175781 127.5,60.099998474121094 116,36.400001525878906 124.10000610351562,32.400001525878906 122.69999694824219,29.5 103,39.099998474121094 104.39999389648438,42 " class="st1"/>
     <path id="svg_8" d="m144.8,53.7c4.6,-1.4 7.6,-3.1 9.1,-5.5c1,-1.8 1.5,-4 0.8,-6.4c-1.2,-4.2 -5,-5.5 -7.9,-5.4l0,-0.1c2.7,-2 3.8,-4.9 3,-7.7c-0.7,-2.2 -2,-3.7 -3.8,-4.3c-2.2,-0.9 -4.7,-0.9 -8.4,0.2c-2.6,0.7 -5,1.7 -6.5,2.5l8.1,28c1.1,-0.2 3.1,-0.6 5.6,-1.3zm-9.5,-25.3c0.6,-0.3 1.5,-0.7 3.2,-1.2c3.7,-1.1 6.6,-0.5 7.6,2.8c0.8,2.7 -0.9,5.4 -4.8,6.6l-3.3,1l-2.7,-9.2zm6.5,11.1c4,-1.2 7.8,-0.5 8.9,3.4c1.2,4.1 -1.9,6.6 -5.7,7.7c-1.3,0.4 -2.4,0.6 -3.1,0.7l-3.2,-10.9l3.1,-0.9z" class="st1"/>
     <path id="svg_9" d="m166.3,39.1l10.5,-1l4,9l4.1,-0.4l-12.9,-28.6l-4.6,0.4l-7.2,30.5l3.9,-0.4l2.2,-9.5zm2.6,-11.9c0.4,-1.8 0.7,-3.7 1,-5.5l0.1,0c0.6,1.7 1.2,3.4 2,5.2l3.7,8.2l-8.9,0.8l2.1,-8.7z" class="st1"/>
     <polygon id="svg_10" points="206,48.5 206.3000030517578,45.30000305175781 193.6999969482422,44.19999694824219 195.8000030517578,17.900001525878906 192,17.599998474121094 189.60000610351562,47.099998474121094 " class="st1"/>
     <polygon id="svg_11" points="227.29998779296875,50 214.89999389648438,47.099998474121094 221,21.299999237060547 217.29998779296875,20.5 210.5,49.30000305175781 226.5,53.099998474121094 " class="st1"/>
     <rect id="svg_12" height="10.9" width="2.9" class="st1" transform="matrix(0.3366,-0.9417,0.9417,0.3366,103.7363,317.4631) " y="27.294859" x="300.506658"/>
     <path id="svg_13" d="m253.6,65.6c3.2,1.7 6,2.4 7.6,2.5l0.7,-3.1c-1.7,-0.1 -4,-0.8 -6.1,-1.9c-6.4,-3.4 -7.8,-9.5 -4.4,-15.9c3.7,-6.9 9.9,-8.6 16,-5.3c2.2,1.2 3.7,2.6 4.7,3.9l2.3,-2.3c-0.6,-0.9 -2.3,-2.7 -5.6,-4.5c-8.1,-4.3 -16.6,-1.8 -21,6.4c-4.6,8.6 -1.5,16.3 5.8,20.2z" class="st1"/>
     <polygon id="svg_14" points="277.79998779296875,82.19999694824219 279.79998779296875,79.5999984741211 269.79998779296875,71.80000305175781 286.1000061035156,51 283.1000061035156,48.599998474121094 264.79998779296875,72 " class="st1"/>
     <path id="svg_15" d="m286.9,92.3c4.3,4.7 10.3,5.8 17.1,-0.4l12.8,-11.6l-2.6,-2.9l-13,11.8c-4.8,4.4 -8.9,4.3 -11.9,1c-2.7,-2.9 -2.6,-7 2.3,-11.5l13,-11.8l-2.6,-2.9l-12.9,11.8c-6.8,6.3 -6.3,12 -2.2,16.5z" class="st1"/>
     <path id="svg_16" d="m301.7,111.2c2.5,4.1 5,6.5 7.7,7.3c2,0.5 4.2,0.4 6.4,-1c3.8,-2.3 4,-6.3 3.2,-9.1l0.1,0c2.6,2.1 5.7,2.4 8.2,0.9c2,-1.2 3,-2.9 3.2,-4.8c0.3,-2.4 -0.4,-4.8 -2.4,-8.1c-1.4,-2.3 -3,-4.4 -4.2,-5.7l-25,15.3c0.5,1.1 1.4,3 2.8,5.2zm21.9,-15.8c0.4,0.5 1.1,1.3 2,2.8c2,3.3 2.2,6.3 -0.7,8.1c-2.4,1.5 -5.5,0.6 -7.6,-2.9l-1.8,-3l8.1,-5zm-10.7,6.5l1.6,2.7c2.2,3.6 2.6,7.4 -0.9,9.5c-3.7,2.2 -6.8,-0.1 -8.9,-3.5c-0.7,-1.2 -1.2,-2.1 -1.5,-2.8l9.7,-5.9z" class="st1"/>
    </g>
    <polygon id="svg_17" points="77.80000305175781,274.70001220703125 56,294.79998779296875 67.19999694824219,307 69.5999984741211,304.79998779296875 61,295.5 80.4000015258789,277.5 " class="st1"/>
    <polygon id="svg_18" points="86.5999984741211,305.3999938964844 95.69999694824219,312.5 97.60000610351562,310 88.60000610351562,302.8999938964844 94.30000305175781,295.5 103.89999389648438,303 105.89999389648438,300.5 93.30000305175781,290.6000061035156 75,313.8999938964844 88.10000610351562,324.20001220703125 90.10000610351562,321.70001220703125 80,313.79998779296875 " class="st1"/>
    <path id="svg_19" d="m119.7,308.1c-5.1,-2.8 -10.1,-1.6 -12.3,2.4c-2,3.7 -0.6,7.3 2.8,11.1c2.8,3.3 3.4,5.4 2.1,7.9c-1.4,2.6 -4.4,3.3 -7.9,1.5c-2.3,-1.3 -4.1,-3.2 -5.1,-5l-2.4,2.3c0.9,1.7 3.2,3.9 5.7,5.3c6.1,3.4 11,1.5 13.2,-2.5c2.1,-3.8 1,-7.2 -2.4,-11.3c-2.8,-3.4 -3.8,-5.4 -2.4,-7.9c1,-1.8 3.5,-3.2 7,-1.2c2.4,1.3 3.7,3 4.3,3.9l2.4,-2.2c-0.8,-1.2 -2.4,-2.9 -5,-4.3z" class="st1"/>
    <path id="svg_20" d="m150.7,320.5c-2.6,-0.6 -5.2,-1 -6.9,-1.1l-7,28.3c1.2,0.5 3.1,1.1 5.7,1.8c4.7,1.2 8.2,1.1 10.6,-0.2c1.8,-1.1 3.2,-2.7 3.9,-5.2c1.1,-4.3 -1.6,-7.3 -4.2,-8.7l0,-0.1c3.3,-0.4 5.7,-2.3 6.4,-5.1c0.6,-2.3 0.1,-4.2 -1.1,-5.7c-1.5,-1.9 -3.7,-3.1 -7.4,-4zm2.3,22.6c-1,4.2 -4.9,4.7 -8.8,3.8c-1.3,-0.3 -2.4,-0.6 -3.1,-0.9l2.7,-11l3.1,0.8c4.1,0.9 7.1,3.3 6.1,7.3zm2.3,-13.5c-0.7,2.8 -3.5,4.3 -7.4,3.3l-3.4,-0.8l2.3,-9.3c0.6,0 1.6,0.1 3.4,0.6c3.7,0.9 6,2.9 5.1,6.2z" class="st1"/>
    <path id="svg_21" d="m175.5,324.5c-2.6,-0.2 -5.4,-0.1 -7.4,0.2l-1.8,29.2l3.8,0.2l0.8,-12.8l3.6,0.2c3.5,0.4 4.9,2 5.6,6.1c0.6,3.7 1.1,6.3 1.5,7.2l4,0.2c-0.5,-1.2 -1.1,-4.1 -1.8,-8.3c-0.5,-3.1 -1.7,-5.3 -4,-6.2l0,-0.1c3.2,-0.9 5.8,-3.3 6.1,-7.2c0.1,-2.3 -0.6,-4.4 -2,-5.8c-1.8,-1.7 -4.4,-2.6 -8.4,-2.9zm6.5,8.9c-0.2,3.4 -2.9,5.5 -7,5.2l-3.9,-0.2l0.7,-10.8c0.6,-0.1 2,-0.2 3.8,-0.1c4,0.3 6.6,2.1 6.4,5.9z" class="st1"/>
    <polygon id="svg_22" points="199.60000610351562,351 198.39999389648438,340.3999938964844 209.8000030517578,339.1000061035156 209.5,335.8999938964844 198,337.20001220703125 197,327.8999938964844 209.10000610351562,326.6000061035156 208.8000030517578,323.3999938964844 192.8000030517578,325.1000061035156 196.10000610351562,354.6000061035156 212.6999969482422,352.79998779296875 212.3000030517578,349.6000061035156 " class="st1"/>
    <path id="svg_23" d="m233.1,317.1l3.5,11.9c1.3,4.4 2.4,7.9 3.9,11.6l-0.1,0.1c-2.2,-2.5 -4.8,-5 -7.9,-7.7l-13.4,-11.7l-4,1.2l8.5,28.4l3.5,-1l-3.6,-12.1c-1.4,-4.7 -2.5,-8.1 -3.8,-11.6l0.1,-0.1c2.4,2.6 5.2,5.3 8.1,7.9l13.3,11.7l3.7,-1.1l-8.5,-28.4l-3.3,0.9z" class="st1"/>
    <polygon id="svg_24" points="259,334.6000061035156 254.10000610351562,325.1000061035156 264.29998779296875,319.79998779296875 262.79998779296875,317 252.60000610351562,322.29998779296875 248.29998779296875,314 259.1000061035156,308.3999938964844 257.6000061035156,305.5 243.39999389648438,312.8999938964844 257.1000061035156,339.20001220703125 271.8999938964844,331.5 270.3999938964844,328.70001220703125 " class="st1"/>
    <polygon id="svg_25" points="280.70001220703125,292.79998779296875 278.79998779296875,290.20001220703125 261.29998779296875,303.5 263.20001220703125,306.1000061035156 270.3999938964844,300.6000061035156 286.29998779296875,321.70001220703125 289.3999938964844,319.29998779296875 273.5,298.29998779296875 " class="st1"/>
    <path id="svg_26" d="m297.3,289.5c-4,1.9 -6.2,2.2 -8.2,0.3c-1.5,-1.4 -2.2,-4.2 0.6,-7.1c1.9,-1.9 3.9,-2.8 4.9,-3.1l-1.5,-2.9c-1.5,0.4 -3.5,1.6 -5.6,3.7c-4,4.2 -4.1,9.3 -0.8,12.5c3,2.9 6.9,2.4 11.5,0.1c3.9,-1.8 6.1,-1.9 8.1,0c2.2,2.1 2.1,5.1 -0.6,8c-1.8,1.9 -4.2,3.1 -6.1,3.6l1.7,2.9c1.9,-0.4 4.6,-2.1 6.6,-4.2c4.8,-5.1 4.3,-10.3 1,-13.4c-3.2,-2.9 -6.7,-2.7 -11.6,-0.4z" class="st1"/>
    <path id="svg_27" d="m315.9,55.6c-71.8,-71.8 -188.5,-71.8 -260.3,0c-34.8,34.8 -53.9,81 -53.9,130.1c0,49.2 19.1,95.4 53.9,130.1c35.9,35.9 83,53.8 130.1,53.8s94.3,-17.9 130.1,-53.8c71.9,-71.6 71.9,-188.4 0.1,-260.2zm-5.7,254.7c-68.6,68.6 -180.3,68.6 -249,0c-33.2,-33.3 -51.5,-77.5 -51.5,-124.5c0,-47 18.3,-91.2 51.6,-124.5c34.3,-34.3 79.4,-51.5 124.5,-51.5c45.1,0 90.2,17.2 124.5,51.5c68.6,68.6 68.6,180.3 -0.1,249z" class="st1"/>
    <path id="svg_28" d="m278.9,92.7c-51.3,-51.3 -134.8,-51.3 -186.2,0c-24.9,24.9 -38.6,57.9 -38.6,93.1c0,35.2 13.7,68.2 38.6,93.1c25.7,25.7 59.4,38.5 93.1,38.5c33.7,0 67.4,-12.8 93.1,-38.5c51.3,-51.4 51.3,-134.9 0,-186.2zm-182.7,3.5c24.7,-24.7 57.1,-37 89.6,-37s64.9,12.3 89.5,37l-25.2,25.2c-22.2,-24.6 -41.8,-27.8 -56.3,-27.8c-20.5,0 -37.6,8.1 -50.8,24c-1.6,1.9 -3,3.8 -4.4,5.8l0,-18.4l-50.4,0c2.5,-3 5.2,-6 8,-8.8zm10.9,46.3l0,-15.7l29.2,0c-4.7,7.6 -8.3,16 -10.7,25.3l0,-9.7l-18.5,0l0,0.1zm-10.9,132.8c-23.9,-23.9 -37.1,-55.7 -37.1,-89.5c0,-28 9.1,-54.7 25.8,-76.6l0,97.3l22.2,0l0,-44.7l16.4,0c-1.3,7.3 -1.9,15.1 -1.9,23.3c0,20.5 3.9,38.3 11.7,53.1l-37.1,37.1zm97.6,-1.6c-19.6,0 -35.9,-7.7 -48.5,-22.9c-13.7,-16.5 -20.7,-38.6 -20.7,-65.7c0,-27.1 7,-49.2 20.7,-65.7c12.6,-15.2 28.9,-22.9 48.5,-22.9c13.9,0 32.7,3.1 54.2,26.9l-14.1,14.2c-16.8,-16.1 -29.9,-18.5 -39.5,-18.7c-10.6,-0.2 -26,5 -34.7,15.5c-7.6,9.2 -14.7,21.6 -14.7,50.7c0,29 7.1,41.5 14.7,50.7c8.7,10.5 24,15.7 34.7,15.5l0.6,0c7.8,-0.2 20.8,-0.4 39.1,-18.7l14.6,13.3c-20.8,24.4 -38.7,27.8 -54.9,27.8zm37.9,-133.8l-78.8,78.8c-3.1,-8 -4.9,-18.4 -4.9,-33.5c0,-26.5 5.6,-38.7 14,-48.7c8,-9.6 22.6,-14.6 32.3,-14.4c5.8,0.1 19.3,0.4 37.4,17.8zm61.3,92c-2.6,2.4 -5.7,3.9 -9.4,4.5c-2.3,0.3 -8,0.5 -17,0.6l-23.2,0l-0.5,-0.5l0,-93.4l27.9,0c5.5,0 9.6,0.3 12.3,0.9c2.7,0.6 5.1,1.9 7.3,3.9c2.1,2 3.9,4.6 5.3,7.8c1.4,3.3 2.1,6.9 2.1,11c0,4.4 -0.9,8.4 -2.6,12.1s-4.1,6.4 -7.1,8.2c4.2,1.7 7.5,4.5 9.8,8.5c2.3,4 3.4,8.7 3.4,14.1c0,4.3 -0.7,8.4 -2.2,12.5c-1.5,4.2 -3.6,7.4 -6.1,9.8z" class="st1"/>
    <path id="svg_29" d="m260.2,158.8l0,21.7l4.7,0c5.5,0 8.9,-0.1 10.2,-0.3c2.4,-0.4 4.3,-1.5 5.7,-3.4c1.4,-1.9 2.1,-4.3 2.1,-7.3c0,-2.9 -0.6,-5.3 -1.8,-7.1c-1.2,-1.8 -3,-2.9 -5.3,-3.3c-1.4,-0.2 -5.4,-0.3 -12,-0.3l-3.6,0z" class="st1"/>
    <path id="svg_30" d="m278.4,197.5c-1.9,-0.9 -6.1,-1.3 -12.5,-1.3l-5.8,0l0,25.1l7.4,0c5.1,0 8.3,-0.2 9.7,-0.6c2.1,-0.5 3.8,-1.8 5.1,-3.7c1.3,-2 2,-4.6 2,-8c0,-2.8 -0.5,-5.2 -1.5,-7.2c-1,-2 -2.5,-3.4 -4.4,-4.3z" class="st1"/>
   </g>
  </g>
 </g>
</svg>